<?xml version="1.0" standalone="no"?><!DOCTYPE svg PUBLIC "-//W3C//DTD SVG 1.1//EN" "http://www.w3.org/Graphics/SVG/1.1/DTD/svg11.dtd"><svg t="1591165168619" class="icon" viewBox="0 0 1024 1024" version="1.1" xmlns="http://www.w3.org/2000/svg" p-id="7767" xmlns:xlink="http://www.w3.org/1999/xlink" width="200" height="200"><defs><style type="text/css"></style></defs><path d="M499.2 1004.8s-6.4 0 0 0c-19.2-6.4-25.6-12.8-25.6-25.6V608H268.8c-12.8 0-19.2-6.4-25.6-12.8v-25.6L512 38.4c6.4-12.8 19.2-19.2 32-12.8 12.8 0 19.2 12.8 19.2 25.6v358.4h192c6.4 0 19.2 6.4 19.2 12.8s6.4 19.2 0 25.6l-256 550.4s-12.8 6.4-19.2 6.4z m-192-454.4h192c12.8 0 25.6 12.8 25.6 25.6v281.6l192-409.6H537.6c-12.8 6.4-25.6-6.4-25.6-19.2V153.6L307.2 550.4z" p-id="7768"></path></svg>